HIERARCHY
ROOT Hips
{
  OFFSET -35.4901 99.2528 17.4586
  CHANNELS 6 Xposition Yposition Zposition Zrotation Xrotation Yrotation
  JOINT LeftUpLeg
  {
    OFFSET 8.64259 1.95398 -2.38835
    CHANNELS 3 Zrotation Xrotation Yrotation
    JOINT LeftLeg
    {
      OFFSET 43.7702 0 0
      CHANNELS 3 Zrotation Xrotation Yrotation
      JOINT LeftFoot
      {
        OFFSET 40.6238 0 0
        CHANNELS 3 Zrotation Xrotation Yrotation
        JOINT LeftToeBase
        {
          OFFSET 12.7242 0 0
          CHANNELS 3 Zrotation Xrotation Yrotation
          End Site
          {
            OFFSET 0 0 0
          }
        }
      }
    }
  }
  JOINT RightUpLeg
  {
    OFFSET -8.2249 1.95398 -2.59336
    CHANNELS 3 Zrotation Xrotation Yrotation
    JOINT RightLeg
    {
      OFFSET 43.5653 0 0
      CHANNELS 3 Zrotation Xrotation Yrotation
      JOINT RightFoot
      {
        OFFSET 40.6238 0 0
        CHANNELS 3 Zrotation Xrotation Yrotation
        JOINT RightToeBase
        {
          OFFSET 12.7242 0 0
          CHANNELS 3 Zrotation Xrotation Yrotation
          End Site
          {
            OFFSET 0 0 0
          }
        }
      }
    }
  }
  JOINT Spine
  {
    OFFSET 0.165834 0.87714 6.61349
    CHANNELS 3 Zrotation Xrotation Yrotation
    JOINT Spine1
    {
      OFFSET 7.38963 1.71661e-005 0
      CHANNELS 3 Zrotation Xrotation Yrotation
      JOINT Spine2
      {
        OFFSET 11.9445 1.14441e-005 0
        CHANNELS 3 Zrotation Xrotation Yrotation
        JOINT Spine3
        {
          OFFSET 14.7254 4.19617e-005 0
          CHANNELS 3 Zrotation Xrotation Yrotation
          JOINT Spine4
          {
            OFFSET 10.9679 0 0
            CHANNELS 3 Zrotation Xrotation Yrotation
            JOINT RightShoulder
            {
              OFFSET 2.46616 -1.6653 3.69651
              CHANNELS 3 Zrotation Xrotation Yrotation
              JOINT RightArm
              {
                OFFSET 13.0012 0 0
                CHANNELS 3 Zrotation Xrotation Yrotation
                JOINT RightForeArm
                {
                  OFFSET 28.7848 1.52588e-005 0
                  CHANNELS 3 Zrotation Xrotation Yrotation
                  JOINT RightHand
                  {
                    OFFSET 26.5688 1.52588e-005 0
                    CHANNELS 3 Zrotation Xrotation Yrotation
                    End Site
                    {
                      OFFSET 0 0 0
                    }
                  }
                }
              }
            }
            JOINT LeftShoulder
            {
              OFFSET 2.38034 -1.29275 -3.7523
              CHANNELS 3 Zrotation Xrotation Yrotation
              JOINT LeftArm
              {
                OFFSET 16.3182 6.10351e-005 0
                CHANNELS 3 Zrotation Xrotation Yrotation
                JOINT LeftForeArm
                {
                  OFFSET 27.0901 0 0
                  CHANNELS 3 Zrotation Xrotation Yrotation
                  JOINT LeftHand
                  {
                    OFFSET 24.5451 1.52588e-005 0
                    CHANNELS 3 Zrotation Xrotation Yrotation
                    End Site
                    {
                      OFFSET 0 0 0
                    }
                  }
                }
              }
            }
            JOINT Neck
            {
              OFFSET 5.0226 -0.0266342 0
              CHANNELS 3 Zrotation Xrotation Yrotation
              JOINT Head
              {
                OFFSET 6.69364 2.86102e-005 0
                CHANNELS 3 Zrotation Xrotation Yrotation
                End Site
                {
                  OFFSET 0 0 0
                }
              }
            }
          }
        }
      }
    }
  }
}
MOTION
Frames:	10
Frame Time:	0.0416667
7.47402 99.4969 25.1467 -141.356 -83.8274 -141.834 -177.177 -3.13278 90.5837 -11.5128 3.79145 0.195024 71.054 4.72142 -0.133471 18.4998 -0.918889 2.11161 169.627 -2.46048 85.9429 -11.3891 -15.1256 -1.36496 69.6934 -4.73806 2.66567 25.0183 -0.878533 2.66102 0.12405 7.42501 -90.052 12.024 0.222146 -0.12801 0.353057 0.216298 -0.13768 -22.1822 0.250344 -0.0553287 -2.1696 0.250346 -0.0553397 90.0759 -32.0555 -105.849 40.3616 -16.8535 -7.88071 2.09421 -29.9694 -16.1726 -24.1227 -0.296185 -7.25426 -82.3788 -50.9842 90.2844 -24.1574 21.0452 -16.0875 1.30792 13.9581 -10.5907 1.36139 0.0143351 -1.15363 9.16333 0.176015 -1.15541 -9.06723 0.285548 2.26395 
7.47335 99.4708 25.1372 -139.926 -83.767 -140.356 -177.426 -3.22581 90.4582 -11.4165 2.9583 0.473379 72.0673 5.01918 -1.8998 16.1924 -3.41706 5.56744 169.874 -2.19322 86.0649 -11.667 -16.5799 -1.55258 68.9502 -4.47113 1.88538 25.3452 -0.631471 2.0305 0.212978 7.40722 -90.1084 12.0598 0.372269 -0.256911 0.388914 0.3606 -0.273054 -22.1466 0.432267 -0.133151 -2.13393 0.432268 -0.133154 90.5411 -31.4994 -105.146 40.4313 -17.5681 -7.09967 3.08619 -31.961 -17.5014 -26.7384 -0.765116 -4.94979 -82.8224 -51.7891 89.693 -23.5535 21.1192 -16.5779 0.86376 13.9076 -9.90893 2.25294 0.0487071 -0.884345 8.4955 0.154999 -0.402384 -8.1223 0.152321 1.61025 
7.48724 99.4448 25.0808 -134.885 -83.5901 -135.069 -177.27 -2.80569 90.6987 -11.7755 2.61398 0.314881 72.3995 5.02086 -1.75367 16.2953 -3.4677 5.62519 170.251 -1.94275 86.4442 -11.6662 -16.7062 -1.70115 69.196 -4.66041 1.30706 24.5653 -1.24153 3.55203 0.322155 7.37648 -90.1669 12.1219 0.561505 -0.395135 0.451013 0.543569 -0.419479 -22.085 0.654307 -0.208111 -2.07231 0.654295 -0.208116 90.896 -31.1856 -104.563 40.8387 -16.8781 -7.68572 2.32454 -32.1247 -15.94 -24.355 -0.764352 -4.93937 -83.1594 -52.0769 89.2204 -23.7204 20.553 -16.7286 0.820784 14.1342 -9.28863 4.72688 0.154245 -0.463016 8.05472 -0.103192 -0.323883 -7.74875 -0.137264 2.06129 
7.50701 99.446 24.9754 -135.405 -83.6289 -135.731 -177.268 -2.7513 90.604 -11.8302 2.7751 0.235323 72.3628 5.00334 -1.70338 16.0346 -3.19588 5.25909 170.186 -1.80615 86.3124 -11.7664 -16.7294 -1.71331 69.1951 -4.64118 1.4665 24.8325 -1.01348 2.99417 0.30657 7.38016 -90.1611 12.1144 0.533327 -0.380243 0.443519 0.516067 -0.403354 -22.0923 0.622938 -0.202376 -2.0797 0.62294 -0.202383 90.8322 -31.0739 -104.727 40.8205 -17.0095 -7.58176 3.03996 -32.0128 -15.5391 -24.9425 -0.709783 -5.22699 -83.0986 -52.2181 89.3236 -23.3841 20.566 -16.7136 0.667781 14.0367 -9.40384 8.81222 0.477592 1.42896 8.29327 0.0213748 0.0122731 -8.30007 -0.0672168 1.54873 
7.54156 99.4479 24.9434 -135.399 -83.5085 -135.757 -177.334 -2.88075 90.5087 -11.726 2.71939 0.284717 72.3206 5.00485 -1.51025 15.9484 -3.17442 5.23007 170.297 -1.61373 86.2805 -12.3554 -16.43 -1.85581 68.8048 -4.28693 2.71147 25.8333 -0.311397 1.18509 0.316259 7.38819 -90.1697 12.0984 0.548584 -0.398899 0.42748 0.530496 -0.422661 -22.1084 0.643104 -0.215572 -2.09578 0.643103 -0.215585 90.8296 -30.879 -104.8 41.0023 -16.9232 -7.47944 3.22104 -31.731 -15.4031 -24.6365 -0.649709 -5.50864 -83.1607 -52.252 89.235 -23.2827 20.3587 -16.7834 0.401839 14.1329 -9.14733 13.9415 1.00736 3.27844 8.46383 0.0260833 0.126758 -8.64575 -0.0812313 1.37027 
7.61124 99.4364 24.9155 -135.504 -83.6166 -135.88 -177.429 -2.71046 90.4401 -11.9444 2.51524 0.371505 72.5496 5.04065 -2.03373 15.6945 -3.33129 5.43551 170.153 -1.58376 86.2143 -12.2492 -16.7819 -1.74142 69.215 -4.59955 1.44174 25.7241 -0.696701 2.15466 0.284627 7.35172 -90.1573 12.1713 0.49133 -0.368467 0.500365 0.474641 -0.389734 -22.0354 0.579356 -0.203761 -2.02273 0.57936 -0.20376 90.6647 -30.8581 -105.131 41.2071 -16.9863 -7.13845 3.16495 -31.753 -16.0678 -25.3003 -0.689641 -5.30287 -83.0791 -51.8812 89.3212 -23.8896 19.65 -16.265 0.473553 14.5682 -9.12912 19.1012 1.74506 5.2871 8.0619 0.0371084 -0.217254 -8.49412 -0.0163544 1.72703 
7.59191 99.4368 24.9171 -133.417 -83.5622 -133.485 -177.229 -2.42719 90.7723 -12.1911 2.60056 0.271495 72.4887 4.98712 -1.71149 16.1906 -3.34001 5.45419 170.364 -1.62847 86.5348 -11.9864 -16.6092 -1.73158 69.1823 -4.55726 1.83908 24.7758 -0.761525 2.39615 0.294828 7.33857 -90.1926 12.1977 0.494852 -0.439486 0.526743 0.475038 -0.460847 -22.0089 0.604056 -0.270444 -1.99626 0.60406 -0.270446 90.5541 -30.8419 -105.354 41.2731 -16.6251 -7.15386 2.44539 -31.5649 -15.9292 -23.6293 -0.664731 -5.39972 -82.9883 -51.8767 89.455 -24.1848 18.6976 -16.1476 0.617979 15.7324 -9.01097 24.2836 2.63832 7.1049 7.96337 0.0218975 -0.234435 -8.36534 -0.0292877 1.78715 
7.5029 99.4417 24.8494 -132.154 -83.678 -132.303 -177.219 -2.19209 90.7984 -12.2044 2.59015 0.216585 72.487 4.99486 -1.80588 15.951 -3.14982 5.19797 170.5 -1.36053 86.624 -12.039 -16.5477 -1.79737 68.6406 -4.278 2.27376 25.6636 -0.456069 1.56504 0.298868 7.32703 -90.1859 12.2207 0.505976 -0.427578 0.549822 0.486664 -0.449442 -21.9859 0.611084 -0.255742 -1.97323 0.611088 -0.255741 90.6153 -30.9016 -105.212 41.0635 -16.8529 -7.21139 3.24169 -31.6705 -15.2912 -24.2053 -0.61253 -5.70367 -83.0832 -51.7113 89.2993 -24.3268 18.1339 -16.3333 0.404005 16.5613 -8.62183 28.876 3.46813 8.30569 8.38313 0.00875643 -0.202759 -8.91328 -0.0571223 1.79005 
7.53747 99.4389 24.9487 -133.512 -83.495 -133.734 -177.414 -2.58921 90.59 -12.0623 1.88961 0.410189 72.4809 4.92298 -2.17795 16.1704 -2.73883 4.6498 170.288 -1.76374 86.3954 -11.8135 -16.4512 -1.76266 69.9052 -4.89932 1.77469 23.7807 -0.89651 2.78995 0.302055 7.35038 -90.1809 12.1741 0.514828 -0.418173 0.503141 0.495924 -0.440435 -22.0326 0.616698 -0.244113 -2.01997 0.616699 -0.244119 90.7008 -30.8051 -105.079 41.217 -16.9694 -7.1813 3.22049 -31.8282 -15.9843 -24.8648 -0.763923 -4.89994 -83.2554 -51.5526 89.0283 -24.5776 17.5975 -16.2681 0.319069 17.3987 -8.36558 32.2553 4.07221 8.92884 8.12349 -0.126916 -0.416919 -8.51188 -0.171158 2.34789 
7.51674 99.4285 24.9742 -132.56 -83.573 -132.925 -177.492 -2.57927 90.4441 -11.8665 2.08326 0.412617 72.3887 4.94885 -2.07889 16.4545 -3.22524 5.3034 170.265 -1.51435 86.3044 -11.9384 -16.843 -1.77276 68.8665 -4.38458 2.22211 25.7059 -0.376291 1.35026 0.304533 7.33829 -90.1822 12.1982 0.519047 -0.421531 0.527268 0.499998 -0.443972 -22.0085 0.621731 -0.246041 -1.99585 0.621736 -0.246046 90.721 -30.7916 -105.044 41.1439 -16.9283 -7.19901 2.70377 -31.4576 -16.0947 -24.5528 -0.720744 -5.08089 -83.2513 -51.8309 89.0612 -24.2585 17.4992 -16.405 0.061457 17.3371 -8.14351 33.6571 4.39197 9.35475 8.1527 0.00674875 -0.207413 -8.45532 -0.0826823 2.35447 
